<?xml version="1.0" encoding="UTF-8"?>
<svg width="34px" height="32px" viewBox="0 0 34 32" version="1.1" xmlns="http://www.w3.org/2000/svg" xmlns:xlink="http://www.w3.org/1999/xlink">
    <!-- Generator: sketchtool 52.1 (67048) - http://www.bohemiancoding.com/sketch -->
    <title>FB1846E4-7C43-49E9-8213-93AD1CAB2F6D</title>
    <desc>Created with sketchtool.</desc>
    <g id="Welcome" stroke="none" stroke-width="1" fill="none" fill-rule="evenodd">
        <g id="Dashboard" transform="translate(-35.000000, -89.000000)" fill="#2979FF" fill-rule="nonzero">
            <g id="Card-1" transform="translate(20.000000, 70.000000)">
                <g id="team" transform="translate(15.000000, 19.000000)">
                    <circle id="Oval" cx="16.9997344" cy="3.04220312" r="2.99113672"></circle>
                    <path d="M21.8543633,4.14016406 C21.3516016,6.36078906 19.3705039,8.02745313 17.0000664,8.02745313 C14.6296289,8.02745313 12.6485312,6.36078906 12.1457695,4.14016406 C10.3626953,4.53747266 9.02367969,6.12610938 9.02367969,8.02745313 L9.02367969,12.0156797 C9.02367969,13.1149688 9.91850391,14.009793 11.017793,14.009793 C12.117082,14.009793 13.0119062,13.1149688 13.0119062,12.0156797 L13.0119062,10.0215664 L20.988293,10.0215664 L20.988293,12.0156797 C20.988293,13.1149688 21.8831172,14.009793 22.9824063,14.009793 C24.0816953,14.009793 24.9765195,13.1149688 24.9765195,12.0156797 L24.9765195,8.02745313 C24.9764531,6.12610937 23.6373711,4.53747266 21.8543633,4.14016406 Z" id="Shape"></path>
                    <path d="M32.4538633,24.4190391 C31.0231406,23.5930117 29.1938477,24.0830898 28.3678203,25.5138125 C27.5418594,26.9444023 28.0320039,28.7738281 29.4627266,29.5997227 C30.8933164,30.42575 32.7892148,29.9355391 33.6151094,28.5049492 C34.4411367,27.074293 33.8844531,25.245 32.4538633,24.4190391 Z" id="Shape"></path>
                    <path d="M30.6290195,17.6090117 L27.1752305,15.6148984 C26.2231641,15.0652539 25.0008906,15.3927695 24.4512461,16.3448359 C23.9016016,17.2969023 24.2291172,18.5191758 25.1811836,19.0688203 L26.9081445,20.0658437 L22.919918,26.9736211 L21.192957,25.9765977 C20.2408906,25.4269531 19.0186172,25.7544687 18.4689727,26.7065352 C17.9193281,27.6586016 18.2468438,28.880875 19.1989102,29.4305195 L22.6526992,31.4246328 C24.2994414,32.3753047 26.3447539,32.0099375 27.5802422,30.6644141 C25.9085313,29.1187422 25.4556406,26.5697383 26.6408594,24.5167891 C27.8260781,22.4638398 30.26,21.5816328 32.4345391,22.2564531 C32.9820586,20.5137539 32.2757617,18.5596836 30.6290195,17.6090117 Z" id="Shape"></path>
                    <path d="M5.63224609,25.5138789 C4.80621875,24.0831562 2.97692578,23.5930117 1.54620313,24.4191055 C0.115613281,25.2450664 -0.441136719,27.0743594 0.384957031,28.505082 C1.21085156,29.9356719 3.10675,30.4258828 4.53733984,29.5998555 C5.9680625,28.7738281 6.45820703,26.9444687 5.63224609,25.5138789 Z" id="Shape"></path>
                    <path d="M15.5310937,26.7065352 C14.9814492,25.7544687 13.7591094,25.4270195 12.8071094,25.9765977 L11.0801484,26.9736211 L7.09192187,20.0658437 L8.81888281,19.0688203 C9.77094922,18.5191758 10.0983984,17.2968359 9.54882031,16.3448359 C8.99917578,15.3927695 7.77683594,15.0653203 6.82483594,15.6148984 L3.37104687,17.6090117 C1.72430469,18.5596836 1.01800781,20.5137539 1.56559375,22.2565195 C3.74006641,21.5816328 6.17405469,22.4639062 7.35927344,24.5168555 C8.54449219,26.5698047 8.09160156,29.1187422 6.41989062,30.6644805 C7.65537891,32.0099375 9.70069141,32.3753711 11.3474336,31.4246992 L14.8012227,29.4305195 C15.7532227,28.880875 16.0807383,27.6585352 15.5310937,26.7065352 Z" id="Shape"></path>
                </g>
            </g>
        </g>
    </g>
</svg>