<?xml version="1.0" encoding="UTF-8"?>
<svg width="34px" height="34px" viewBox="0 0 34 34" version="1.1" xmlns="http://www.w3.org/2000/svg" xmlns:xlink="http://www.w3.org/1999/xlink">
    <!-- Generator: sketchtool 52.1 (67048) - http://www.bohemiancoding.com/sketch -->
    <title>13A68792-2C7B-472D-9AAC-CFD42CE42D9E</title>
    <desc>Created with sketchtool.</desc>
    <g id="Welcome" stroke="none" stroke-width="1" fill="none" fill-rule="evenodd">
        <g id="Dashboard" transform="translate(-625.000000, -88.000000)" fill="#2979FF" fill-rule="nonzero">
            <g id="Card-3" transform="translate(610.000000, 70.000000)">
                <g id="group" transform="translate(15.000000, 18.000000)">
                    <path d="M17.4521602,32.8664453 C17.3287109,32.7429297 17.1573828,32.671875 16.9827344,32.671875 C16.8080195,32.671875 16.6366914,32.7429297 16.5132422,32.8664453 C16.3897266,32.9899609 16.3186719,33.1612891 16.3186719,33.3359375 C16.3186719,33.5105859 16.3896602,33.6819141 16.5132422,33.8054297 C16.6366914,33.9289453 16.8080195,34 16.9827344,34 C17.1573828,34 17.3287109,33.9289453 17.4521602,33.8054297 C17.5756758,33.6819141 17.6467969,33.5105859 17.6467969,33.3359375 C17.6467969,33.1612891 17.5757422,32.9899609 17.4521602,32.8664453 Z" id="Shape"></path>
                    <path d="M30.45125,21.7195586 L28.2360703,21.1903672 L28.2360703,20.3116797 C29.4656484,19.5345273 30.2845703,18.1639688 30.2845703,16.6050156 L30.2845703,14.1302539 C30.2845703,11.7135313 28.3184141,9.74744141 25.901625,9.74744141 C24.5979375,9.74744141 23.4260664,10.3202617 22.6224844,11.2266406 C21.9187109,8.78933203 19.6677383,7.00167578 17.0069063,7.00167578 L17.0068398,7.00167578 C14.3416914,7.00167578 12.0876641,8.79497656 11.3878086,11.2382617 C10.5840273,10.3251758 9.40783984,9.74744141 8.09857422,9.74744141 C5.68178516,9.74744141 3.71562891,11.7135977 3.71562891,14.1302539 L3.71562891,16.6050156 C3.71562891,18.1640352 4.53455078,19.5345938 5.76412891,20.3116797 L5.76412891,21.1903672 L3.54894922,21.7195586 C1.45934375,22.218668 0,24.0676172 0,26.215793 L0,30.6796875 C0,31.0464492 0.297367187,31.34375 0.6640625,31.34375 L5.97410547,31.34375 L5.97410547,33.3359375 C5.97410547,33.7026992 6.27147266,34 6.63816797,34 L13.9231992,34 C14.2898945,34 14.5872617,33.7026992 14.5872617,33.3359375 C14.5872617,32.9691758 14.2898945,32.671875 13.9231992,32.671875 L10.958625,32.671875 L10.958625,29.7492031 C10.958625,29.3824414 10.6612578,29.0851406 10.2945625,29.0851406 C9.92786719,29.0851406 9.6305,29.3824414 9.6305,29.7492031 L9.6305,32.671875 L7.30216406,32.671875 L7.30216406,29.6757578 C7.30216406,27.4236562 8.83176562,25.4842617 11.0219102,24.9594531 L14.2879687,24.1767891 L16.3894609,28.9577734 C16.4954453,29.1988945 16.7339102,29.3546172 16.9972773,29.3546172 L16.9973437,29.3546172 C17.2607109,29.3546172 17.4992422,29.1989609 17.6052266,28.9578398 L19.7045937,24.1838281 L22.9611562,24.9617773 C25.153293,25.4853906 26.6842227,27.4251836 26.6842227,29.6788789 L26.6842227,30.4199062 C26.6502891,30.4997266 26.6314297,30.5874492 26.6314297,30.6796211 C26.6314297,30.771793 26.6502891,30.859582 26.6842227,30.9393359 L26.6842227,32.671875 L24.3695,32.671875 L24.3695,29.7492031 C24.3695,29.3824414 24.0721328,29.0851406 23.7054375,29.0851406 C23.3387422,29.0851406 23.041375,29.3824414 23.041375,29.7492031 L23.041375,32.671875 L19.7891289,32.671875 C19.4224336,32.671875 19.1250664,32.9691758 19.1250664,33.3359375 C19.1250664,33.7026992 19.4224336,34 19.7891289,34 L27.3482852,34 C27.7149805,34 28.0123477,33.7026992 28.0123477,33.3359375 L28.0123477,31.34375 L33.3359375,31.34375 C33.7026328,31.34375 34,31.0464492 34,30.6796875 L34,26.215793 C34,24.0676172 32.5406562,22.218668 30.45125,21.7195586 Z M25.9015586,11.0755664 C27.5859531,11.0755664 28.9563789,12.4459258 28.9563789,14.1302539 L28.9563789,14.2946758 L28.9563789,14.3614141 L27.0569609,14.3614141 C25.6221875,14.3614141 24.2123164,13.9846914 22.9697891,13.270625 C23.3420625,12.0034609 24.5154609,11.0755664 25.9015586,11.0755664 Z M22.8467383,16.4966406 C22.8490625,16.4288398 22.8507227,14.7111094 22.8507227,14.7111094 C24.1562031,15.353125 25.5954258,15.6896055 27.0570273,15.6896055 L28.9564453,15.6896055 L28.9564453,16.605082 C28.9563789,18.2894102 27.5859531,19.6597031 25.9015586,19.6597031 C24.2171641,19.6597031 22.8467383,18.2893438 22.8467383,16.6050156 L22.8467383,16.4966406 Z M12.4910156,12.8454922 C12.4910156,10.3555234 14.5168047,8.32986719 17.0068398,8.32986719 C19.4968086,8.32986719 21.5225977,10.3555898 21.5225977,12.8454922 L21.5225977,12.9320859 L19.0579297,11.4840977 C18.778293,11.3197422 18.4208945,11.3815664 18.2125781,11.630125 C17.255,12.7728438 15.8506406,13.4282734 14.3596211,13.4282734 L12.4910156,13.4282734 L12.4910156,12.8454922 Z M5.04362109,14.2947422 L5.04362109,14.1302539 C5.04362109,12.4458594 6.41404687,11.0755664 8.09844141,11.0755664 C9.48453906,11.0755664 10.6579375,12.0034609 11.0301445,13.2706914 C9.78761719,13.9846914 8.3778125,14.3614805 6.94297266,14.3614805 L5.04362109,14.3614805 L5.04362109,14.2947422 Z M5.04362109,16.6050156 L5.04362109,15.6895391 L6.94303906,15.6895391 C8.40610156,15.6895391 9.84678516,15.3524609 11.1532617,14.7091836 L11.1532617,16.6050156 C11.1532617,18.2894102 9.78283594,19.6597031 8.09844141,19.6597031 C6.41404687,19.6597031 5.04362109,18.2893438 5.04362109,16.6050156 Z M5.97410547,29.6757578 L5.97410547,30.015625 L3.984375,30.015625 L3.984375,27.0652617 C3.984375,26.6985 3.68700781,26.4011992 3.3203125,26.4011992 C2.95361719,26.4011992 2.65625,26.6985 2.65625,27.0652617 L2.65625,30.015625 L1.328125,30.015625 L1.328125,26.215793 C1.328125,24.6847969 2.36817969,23.3670977 3.85733984,23.0113594 L5.96228516,22.5084648 L7.33609766,25.7992266 C6.47686719,26.8666406 5.97410547,28.2196016 5.97410547,29.6757578 Z M8.09857422,24.1781172 L7.0900625,21.7623242 C7.09119141,21.7464531 7.09212109,21.730582 7.09212109,21.7145117 L7.09212109,20.869957 C7.41545312,20.9461914 7.75213281,20.9878281 8.09844141,20.9878281 C8.44322266,20.9878281 8.77830859,20.9465234 9.10037891,20.8709531 L9.10037891,21.6724766 C9.09964844,21.6849609 9.09931641,21.6974453 9.09931641,21.7099297 C9.09931641,21.7308477 9.10130859,21.7516328 9.10330078,21.772418 L8.09857422,24.1781172 Z M10.712457,23.667918 C10.3203281,23.7618828 9.94559766,23.8926367 9.58979297,24.0538711 L10.2365898,22.5051445 L12.3418672,23.0096328 C12.5051602,23.0487461 12.6642695,23.1004766 12.8182656,23.1632969 L10.712457,23.667918 Z M14.0085977,22.2838125 C13.5916992,22.0252266 13.134293,21.8337773 12.6513867,21.7180977 L10.4285039,21.1854531 L10.4285039,20.3145352 C10.9813359,19.9661016 11.4508945,19.4978047 11.8009219,18.9461016 C12.3015586,19.9241992 13.0699453,20.7432539 14.0085977,21.3066445 L14.0085977,22.2838125 Z M18.655707,23.2696133 L16.9974766,27.0405586 L15.3367227,23.2622422 L15.3367227,21.8926797 C15.8661133,22.0508594 16.4266484,22.1361914 17.0067734,22.1361914 C17.5791953,22.1361914 18.1325586,22.0530508 18.655707,21.8989219 L18.655707,23.2696133 Z M17.0068398,20.8081328 C14.5167383,20.8080664 12.4910156,18.7823438 12.4910156,16.2924414 L12.4910156,14.7564648 L14.3595547,14.7564648 C16.0545078,14.7564648 17.6609414,14.0865586 18.8477539,12.9010078 L21.5186797,14.4701211 L21.5186797,16.4482969 C21.4360703,18.8662148 19.4446133,20.8081328 17.0068398,20.8081328 Z M19.983832,21.3191289 L19.9838984,21.3191289 C20.9283281,20.7576641 21.7020938,19.9380117 22.206582,18.9577891 C22.5558789,19.5043789 23.0226484,19.9684922 23.5714961,20.3145352 L23.5714961,21.1854531 L21.3486133,21.7180977 C20.8627852,21.8345078 20.4027891,22.0276836 19.983832,22.2886602 L19.983832,21.3191289 Z M23.2696797,23.6701094 L21.169582,23.1683437 C21.3273633,23.1032656 21.4905234,23.0498086 21.6581328,23.0096328 L23.7582969,22.5064062 L24.40775,24.0620391 C24.0473633,23.8978828 23.6674531,23.7651367 23.2696797,23.6701094 Z M24.8953047,21.7823125 C24.8979609,21.758207 24.8998867,21.7339688 24.8998867,21.7096641 C24.8998867,21.7034883 24.8998203,21.6972461 24.8996211,21.6910703 L24.8996211,20.8709531 C25.2216914,20.9465898 25.5567773,20.9878281 25.9015586,20.9878281 C26.2478672,20.9878281 26.5845469,20.9461914 26.9078789,20.8698906 L26.9078789,21.7144453 C26.9078789,21.7265313 26.9087422,21.738418 26.9094063,21.7503711 L25.8955156,24.1781172 L24.8953047,21.7823125 Z M32.671875,30.015625 L31.34375,30.015625 L31.34375,27.0652617 C31.34375,26.6985 31.0463828,26.4011992 30.6796875,26.4011992 C30.3129922,26.4011992 30.015625,26.6985 30.015625,27.0652617 L30.015625,30.015625 L28.0123477,30.015625 L28.0123477,29.6789453 C28.0123477,28.2247148 27.5112461,26.8736133 26.6544727,25.8071289 L28.0326016,22.5072695 L30.1426602,23.0113594 C31.6318203,23.3670977 32.671875,24.6847969 32.671875,26.215793 L32.671875,30.015625 Z" id="Shape"></path>
                    <path d="M15.2421602,15.5510156 C15.1187109,15.4275 14.9473828,15.3564453 14.7727344,15.3564453 C14.5980859,15.3564453 14.4267578,15.4275 14.3032422,15.5510156 C14.1797266,15.6745313 14.1086719,15.8458594 14.1086719,16.0205078 C14.1086719,16.1951563 14.1796602,16.3664844 14.3032422,16.49 C14.4268242,16.6135156 14.5980859,16.6845703 14.7727344,16.6845703 C14.9480469,16.6845703 15.1187109,16.6135156 15.2421602,16.49 C15.3663398,16.3664844 15.4367969,16.1951563 15.4367969,16.0205078 C15.4367969,15.8458594 15.3663398,15.6745312 15.2421602,15.5510156 Z" id="Shape"></path>
                    <path d="M19.6827461,15.5510156 C19.5592969,15.4275 19.3879687,15.3564453 19.2133203,15.3564453 C19.0386719,15.3564453 18.8673437,15.4275 18.7438281,15.5510156 C18.6203125,15.6745313 18.5492578,15.8458594 18.5492578,16.0205078 C18.5492578,16.1951563 18.6202461,16.3664844 18.7438281,16.49 C18.8674102,16.6135156 19.0386719,16.6845703 19.2133203,16.6845703 C19.3879687,16.6845703 19.5592969,16.6135156 19.6827461,16.49 C19.8069258,16.3664844 19.8773828,16.1951563 19.8773828,16.0205078 C19.8773828,15.8458594 19.8069258,15.6745312 19.6827461,15.5510156 Z" id="Shape"></path>
                    <path d="M18.2781211,17.7863828 C18.0187383,17.5270664 17.5983867,17.5270664 17.3389375,17.7863828 C17.1425742,17.9827461 16.8230938,17.9827461 16.6267305,17.7863828 C16.3673477,17.5270664 15.9469961,17.5270664 15.6875469,17.7863828 C15.4282305,18.0456992 15.4282305,18.4661836 15.6875469,18.7255664 C16.0446797,19.0826328 16.513707,19.2611992 16.9828008,19.2611992 C17.4518945,19.2611992 17.9209219,19.0826992 18.2780547,18.7255664 C18.5374375,18.4661836 18.5374375,18.0456992 18.2781211,17.7863828 Z" id="Shape"></path>
                    <path d="M27.4575898,3.5859375 L27.0021094,3.5859375 C26.6354141,3.5859375 26.3380469,3.88323828 26.3380469,4.25 C26.3380469,4.61676172 26.6354141,4.9140625 27.0021094,4.9140625 L27.4575898,4.9140625 C27.8242852,4.9140625 28.1216523,4.61676172 28.1216523,4.25 C28.1216523,3.88323828 27.8242852,3.5859375 27.4575898,3.5859375 Z" id="Shape"></path>
                    <path d="M30.6796875,3.5859375 L30.224207,3.5859375 C29.8575117,3.5859375 29.5601445,3.88323828 29.5601445,4.25 C29.5601445,4.61676172 29.8574453,4.9140625 30.224207,4.9140625 L30.6796875,4.9140625 C31.0463828,4.9140625 31.34375,4.61676172 31.34375,4.25 C31.34375,3.88323828 31.0463828,3.5859375 30.6796875,3.5859375 Z" id="Shape"></path>
                    <path d="M28.8409648,4.96924609 C28.4742695,4.96924609 28.1769023,5.26654687 28.1769023,5.63330859 L28.1769023,6.08878906 C28.1769023,6.45555078 28.4742031,6.75285156 28.8409648,6.75285156 C29.2076602,6.75285156 29.5050273,6.45555078 29.5050273,6.08878906 L29.5050273,5.63330859 C29.5050273,5.26654687 29.2076602,4.96924609 28.8409648,4.96924609 Z" id="Shape"></path>
                    <path d="M28.8409648,1.74714844 C28.4742695,1.74714844 28.1769023,2.04444922 28.1769023,2.41121094 L28.1769023,2.86669141 C28.1769023,3.23345313 28.4742031,3.53075391 28.8409648,3.53075391 C29.2076602,3.53075391 29.5050273,3.23345313 29.5050273,2.86669141 L29.5050273,2.41121094 C29.5050273,2.04444922 29.2076602,1.74714844 28.8409648,1.74714844 Z" id="Shape"></path>
                    <path d="M3.73880469,3.5859375 L3.28339063,3.5859375 C2.91669531,3.5859375 2.61932813,3.88323828 2.61932813,4.25 C2.61932813,4.61676172 2.91669531,4.9140625 3.28339063,4.9140625 L3.73880469,4.9140625 C4.1055,4.9140625 4.40286719,4.61676172 4.40286719,4.25 C4.40286719,3.88323828 4.1055,3.5859375 3.73880469,3.5859375 Z" id="Shape"></path>
                    <path d="M6.96090234,3.5859375 L6.50548828,3.5859375 C6.13879297,3.5859375 5.84142578,3.88323828 5.84142578,4.25 C5.84142578,4.61676172 6.13872656,4.9140625 6.50548828,4.9140625 L6.96090234,4.9140625 C7.32759766,4.9140625 7.62496484,4.61676172 7.62496484,4.25 C7.62496484,3.88323828 7.32759766,3.5859375 6.96090234,3.5859375 Z" id="Shape"></path>
                    <path d="M5.12217969,4.96924609 C4.75548437,4.96924609 4.45811719,5.26654687 4.45811719,5.63330859 L4.45811719,6.08878906 C4.45811719,6.45555078 4.75541797,6.75285156 5.12217969,6.75285156 C5.488875,6.75285156 5.78624219,6.45555078 5.78624219,6.08878906 L5.78624219,5.63330859 C5.78624219,5.26654687 5.488875,4.96924609 5.12217969,4.96924609 Z" id="Shape"></path>
                    <path d="M5.12217969,1.74714844 C4.75548437,1.74714844 4.45811719,2.04444922 4.45811719,2.41121094 L4.45811719,2.86669141 C4.45811719,3.23345313 4.75541797,3.53075391 5.12217969,3.53075391 C5.488875,3.53075391 5.78624219,3.23345313 5.78624219,2.86669141 L5.78624219,2.41121094 C5.78624219,2.04444922 5.488875,1.74714844 5.12217969,1.74714844 Z" id="Shape"></path>
                    <path d="M17,2.52921484 C16.6333047,2.52921484 16.3359375,2.82651563 16.3359375,3.19327734 L16.3359375,4.94042578 C16.3359375,5.3071875 16.6333047,5.60448828 17,5.60448828 C17.3666953,5.60448828 17.6640625,5.3071875 17.6640625,4.94042578 L17.6640625,3.19327734 C17.6640625,2.82651562 17.3666953,2.52921484 17,2.52921484 Z" id="Shape"></path>
                    <path d="M17.4694258,0.194570313 C17.3459766,0.0710546875 17.1746484,0 17,0 C16.8253516,0 16.6540234,0.0710546875 16.5305078,0.194570313 C16.4069258,0.318085937 16.3359375,0.489414062 16.3359375,0.6640625 C16.3359375,0.838710937 16.4069258,1.01003906 16.5305078,1.13355469 C16.6540898,1.25707031 16.8253516,1.328125 17,1.328125 C17.1746484,1.328125 17.3459766,1.25707031 17.4694258,1.13355469 C17.5930078,1.01003906 17.6640625,0.838710938 17.6640625,0.6640625 C17.6640625,0.489414062 17.5930078,0.318085937 17.4694258,0.194570313 Z" id="Shape"></path>
                    <path d="M14.672793,2.66415234 L13.7010039,1.69236328 C13.4416211,1.43304688 13.0212695,1.43304688 12.7618203,1.69236328 C12.5025039,1.95167969 12.5025039,2.37216406 12.7618203,2.63154688 L13.7336758,3.60333594 C13.8633672,3.73302734 14.0333008,3.79783984 14.2032344,3.79783984 C14.373168,3.79783984 14.5431016,3.73302734 14.672793,3.60333594 C14.9321094,3.34401953 14.9321094,2.92353516 14.672793,2.66415234 Z" id="Shape"></path>
                    <path d="M21.2380469,1.65583984 C20.9786641,1.39652344 20.5583125,1.39652344 20.2988633,1.65583984 L19.2946016,2.66010156 C19.0352852,2.91941797 19.0352852,3.33990234 19.2946016,3.59928516 C19.4243594,3.72897656 19.5942266,3.79378906 19.7642266,3.79378906 C19.9342266,3.79378906 20.1040937,3.72897656 20.2337852,3.59928516 L21.2380469,2.59502344 C21.4973633,2.33570703 21.4973633,1.91522266 21.2380469,1.65583984 Z" id="Shape"></path>
                </g>
            </g>
        </g>
    </g>
</svg>